<?xml version="1.0" standalone="no"?>
<!DOCTYPE svg PUBLIC "-//W3C//DTD SVG 20010904//EN"
 "http://www.w3.org/TR/2001/REC-SVG-20010904/DTD/svg10.dtd">
<svg version="1.0" xmlns="http://www.w3.org/2000/svg"
 width="850.000000pt" height="850.000000pt" viewBox="0 0 850.000000 850.000000"
 preserveAspectRatio="xMidYMid meet">
<metadata>
Created by potrace 1.14, written by Peter Selinger 2001-2017
</metadata>
<g transform="translate(0.000000,850.000000) scale(0.100000,-0.100000)"
fill="#000000" stroke="none">
<path d="M2889 6975 c-485 -58 -912 -230 -1304 -525 -441 -332 -782 -824 -940
-1356 -82 -275 -109 -495 -102 -819 7 -309 39 -502 127 -765 196 -585 604
-1098 1129 -1418 389 -236 765 -354 1221 -383 250 -16 443 0 660 56 152 38
368 130 498 212 l74 46 -53 22 c-529 216 -991 641 -1252 1151 -150 294 -238
597 -268 918 -14 156 -7 447 16 596 129 858 702 1600 1479 1915 l79 32 -59 38
c-186 121 -456 225 -684 265 -160 28 -452 35 -621 15z"/>
<path d="M5155 6983 c-280 -35 -453 -83 -657 -183 -97 -48 -237 -130 -238
-141 0 -3 37 -20 83 -39 261 -106 508 -272 735 -494 243 -238 412 -481 545
-786 130 -298 192 -575 204 -910 13 -394 -52 -740 -209 -1096 -234 -531 -659
-974 -1173 -1223 -77 -38 -151 -73 -164 -78 -24 -9 -24 -10 22 -42 117 -80
358 -186 517 -226 108 -28 279 -55 385 -61 203 -12 536 21 755 75 737 183
1372 692 1719 1375 133 262 206 490 258 801 26 157 26 610 0 775 -44 280 -117
511 -242 766 -260 528 -670 945 -1189 1209 -296 150 -573 233 -907 270 -120
13 -366 18 -444 8z"/>
</g>
</svg>
